<svg width="32" height="32" viewBox="0 0 32 32" fill="none" xmlns="http://www.w3.org/2000/svg">
<g clip-path="url(#clip0_1355_139)">
<path fill-rule="evenodd" clip-rule="evenodd" d="M15.9985 -2.28882e-05C7.16339 -2.28882e-05 0 7.15775 0 15.9879C0 23.0515 4.58406 29.0433 10.942 31.1583C11.7425 31.3046 12.0343 30.8109 12.0343 30.3869C12.0343 30.008 12.0205 29.0021 12.0126 27.6683C7.56217 28.634 6.62316 25.5248 6.62316 25.5248C5.89533 23.6786 4.84631 23.1869 4.84631 23.1869C3.3936 22.1947 4.95632 22.2143 4.95632 22.2143C6.56226 22.3281 7.40698 23.8622 7.40698 23.8622C8.83416 26.305 11.1522 25.5993 12.0637 25.1911C12.2091 24.1576 12.6216 23.4529 13.0793 23.0534C9.52663 22.6501 5.79121 21.278 5.79121 15.1517C5.79121 13.4067 6.41493 11.9797 7.43841 10.8618C7.2734 10.4574 6.72433 8.83212 7.59459 6.63071C7.59459 6.63071 8.93827 6.20083 11.995 8.26974C13.2709 7.91544 14.6401 7.73779 16.0005 7.7319C17.3589 7.73779 18.7281 7.91544 20.006 8.26974C23.0607 6.20083 24.4015 6.63071 24.4015 6.63071C25.2747 8.83212 24.7256 10.4574 24.5606 10.8618C25.5861 11.9797 26.2058 13.4067 26.2058 15.1517C26.2058 21.2937 22.4645 22.6452 18.9 23.0407C19.4746 23.5344 19.9864 24.5099 19.9864 26.0017C19.9864 28.1384 19.9667 29.8628 19.9667 30.3869C19.9667 30.8148 20.2545 31.3124 21.0668 31.1564C27.4199 29.0374 32 23.0495 32 15.9879C32 7.15775 24.8356 -2.28882e-05 15.9985 -2.28882e-05Z" fill="#1B1817"/>
</g>
<defs>
<clipPath id="clip0_1355_139">
<rect width="32" height="32" fill="white"/>
</clipPath>
</defs>
</svg>
