<svg width="32" height="32" viewBox="0 0 32 32" fill="none" xmlns="http://www.w3.org/2000/svg">
<path d="M2 16C2 8.26801 8.26801 2 16 2C23.732 2 30 8.26801 30 16V26.5C30 28.433 28.433 30 26.5 30H16H5.5C3.567 30 2 28.433 2 26.5V16Z" stroke="black" stroke-width="2"/>
<path d="M16 2V9" stroke="black" stroke-width="2" stroke-linecap="round"/>
<path d="M16 30V23" stroke="black" stroke-width="2" stroke-linecap="round"/>
<path d="M13.375 16V20.375C13.375 21.8247 14.5503 23 16 23C17.4497 23 18.625 21.8247 18.625 20.375V16V11.625C18.625 10.1753 17.4497 9 16 9C14.5503 9 13.375 10.1753 13.375 11.625V16Z" stroke="black" stroke-width="2"/>
</svg>
