<svg width="32" height="32" viewBox="0 0 32 32" fill="none" xmlns="http://www.w3.org/2000/svg">
<path d="M19 5C19 6.65685 17.6569 8 16 8C14.3431 8 13 6.65685 13 5C13 3.34315 14.3431 2 16 2C17.6569 2 19 3.34315 19 5Z" stroke="black" stroke-width="2"/>
<path d="M19 16C19 17.6569 17.6569 19 16 19C14.3431 19 13 17.6569 13 16C13 14.3431 14.3431 13 16 13C17.6569 13 19 14.3431 19 16Z" stroke="black" stroke-width="2"/>
<path d="M19 27C19 28.6569 17.6569 30 16 30C14.3431 30 13 28.6569 13 27C13 25.3431 14.3431 24 16 24C17.6569 24 19 25.3431 19 27Z" stroke="black" stroke-width="2"/>
</svg>
