<svg width="32" height="32" viewBox="0 0 32 32" fill="none" xmlns="http://www.w3.org/2000/svg">
<path d="M27.4041 5.32652L27.4032 5.3266L27.4027 5.32663L27.402 5.32669L27.3204 5.33304L27.2379 5.35392C22.3883 6.58003 18.7752 10.8657 18.7752 16C18.7752 21.1343 22.3883 25.42 27.2379 26.6461L27.3204 26.667L27.402 26.6733L27.4027 26.6734L27.4028 26.6734L27.4032 26.6734L27.4041 26.6735L27.4155 26.6746C27.4218 26.6752 27.4301 26.6761 27.4401 26.6773C27.4513 26.6786 27.4647 26.6802 27.4801 26.6822C27.539 26.69 27.6219 26.7028 27.7138 26.7225C27.7293 26.7258 27.7444 26.7292 27.7592 26.7326C27.6573 26.8289 27.5228 26.9429 27.3469 27.0746C24.8995 28.9068 21.8251 30 18.4848 30C10.4548 30 4 23.7022 4 16C4 8.29776 10.4548 2 18.4848 2C21.8251 2 24.8995 3.09319 27.3469 4.92539C27.5228 5.05707 27.6573 5.17105 27.7592 5.26739C27.7444 5.27082 27.7293 5.27421 27.7138 5.27752C27.6218 5.29722 27.539 5.31005 27.4801 5.31779C27.451 5.3216 27.4288 5.32404 27.4155 5.32539L27.4041 5.32652ZM28.1328 26.868C28.1328 26.868 28.1321 26.8675 28.1309 26.8665C28.1322 26.8675 28.1328 26.868 28.1328 26.868Z" stroke="black" stroke-width="2"/>
</svg>
